# xmcd CD database file
#
# Track frame offsets:
#	183
#	12663
#	29423
#	45855
#	65193
#	76690
#	91315
#	107883
#	121253
#	141013
#	158968
#	174785
#	191888
#	202345
#	212755
#
# Disc length: 3036 seconds
#
# Revision: 0
# Processed by: cddbd v1.4PL0 Copyright (c) Steve Scherf et al.
# Submitted via: Feurio! 1.65 - http://www.feurio.com
#
DISCID=d10bda0f
DTITLE=Paul Orta - I'll Kick Your Booty
DYEAR=1900
DGENRE=Blues
TTITLE0=Babe
TTITLE1=Most Beautiful Woman
TTITLE2=Get Out Of My Life
TTITLE3=Keep What I Got
TTITLE4=Shake Your Moneymaker
TTITLE5=Lookin' Good
TTITLE6=Mellow Down Easy
TTITLE7=Calling All Ducks
TTITLE8=Love Me Baby
TTITLE9=You Were Wrong
TTITLE10=I'll Kick Your Booty
TTITLE11=You Never Know
TTITLE12=I've Been Abused
TTITLE13=One Way Out
TTITLE14=Jump The Boogie
EXTD=ARD New Rose Rose 181
EXTT0=
EXTT1=
EXTT2=
EXTT3=
EXTT4=
EXTT5=
EXTT6=
EXTT7=
EXTT8=
EXTT9=
EXTT10=
EXTT11=
EXTT12=
EXTT13=
EXTT14=
PLAYORDER=
